# xmcd
#
# Track frame offsets: 
#        150
#        24248
#        42593
#        62501
#        73950
#        91976
#        104901
#        121422
#        137437
#        151793
#
# Disc length: 2363 seconds
#
# Revision: 1
# Processed by: cddbd v1.5.2PL0 Copyright (c) Steve Scherf et al.
# Submitted via: ExactAudioCopy v0.99pb4
#
DISCID=8609390a
DTITLE=Dorothy Ashby - The Rubaiyat Dorothy Ashby
DYEAR=1969
DGENRE=Jazz
TTITLE0=Myself When Young
TTITLE1=For Some We Loved
TTITLE2=Wax and Wane
TTITLE3=Drink
TTITLE4=Wine
TTITLE5=Dust
TTITLE6=Joyful Grass and Grape
TTITLE7=Shadow Shapes
TTITLE8=Heaven and Hell
TTITLE9=The Moving Finger
EXTD=YEAR: 2005
EXTT0=
EXTT1=
EXTT2=
EXTT3=
EXTT4=
EXTT5=
EXTT6=
EXTT7=
EXTT8=
EXTT9=
PLAYORDER=
